<svg width="1062" height="303" viewBox="0 0 1062 303" fill="none" xmlns="http://www.w3.org/2000/svg">
<path opacity="0.2" d="M16.4347 252V62.9091H92.1449C106.056 62.9091 117.659 64.9711 126.953 69.0952C136.248 73.2192 143.234 78.9437 147.912 86.2685C152.59 93.5317 154.929 101.903 154.929 111.382C154.929 118.768 153.452 125.262 150.497 130.864C147.543 136.403 143.48 140.958 138.31 144.528C133.201 148.037 127.353 150.53 120.767 152.007V153.854C127.969 154.161 134.709 156.193 140.987 159.947C147.327 163.702 152.467 168.965 156.406 175.736C160.346 182.445 162.315 190.447 162.315 199.741C162.315 209.775 159.822 218.731 154.837 226.609C149.912 234.427 142.618 240.613 132.955 245.168C123.291 249.723 111.38 252 97.223 252H16.4347ZM56.4134 219.315H89.0057C100.147 219.315 108.272 217.192 113.381 212.945C118.49 208.636 121.044 202.911 121.044 195.771C121.044 190.539 119.782 185.923 117.259 181.922C114.735 177.921 111.134 174.782 106.456 172.504C101.839 170.227 96.3305 169.088 89.929 169.088H56.4134V219.315ZM56.4134 142.036H86.0511C91.5294 142.036 96.392 141.081 100.639 139.173C104.948 137.204 108.333 134.434 110.795 130.864C113.319 127.294 114.581 123.016 114.581 118.03C114.581 111.197 112.15 105.688 107.287 101.503C102.486 97.3172 95.6534 95.2244 86.7898 95.2244H56.4134V142.036ZM362.093 157.455C362.093 178.075 358.185 195.617 350.368 210.082C342.612 224.547 332.025 235.596 318.606 243.229C305.249 250.8 290.23 254.585 273.549 254.585C256.745 254.585 241.665 250.769 228.308 243.136C214.951 235.504 204.395 224.455 196.639 209.99C188.883 195.525 185.005 178.013 185.005 157.455C185.005 136.834 188.883 119.292 196.639 104.827C204.395 90.3617 214.951 79.3437 228.308 71.7727C241.665 64.1401 256.745 60.3239 273.549 60.3239C290.23 60.3239 305.249 64.1401 318.606 71.7727C332.025 79.3437 342.612 90.3617 350.368 104.827C358.185 119.292 362.093 136.834 362.093 157.455ZM321.561 157.455C321.561 144.098 319.56 132.833 315.559 123.662C311.62 114.491 306.049 107.535 298.848 102.795C291.646 98.0559 283.213 95.6861 273.549 95.6861C263.886 95.6861 255.453 98.0559 248.251 102.795C241.049 107.535 235.448 114.491 231.447 123.662C227.508 132.833 225.538 144.098 225.538 157.455C225.538 170.812 227.508 182.076 231.447 191.247C235.448 200.419 241.049 207.374 248.251 212.114C255.453 216.853 263.886 219.223 273.549 219.223C283.213 219.223 291.646 216.853 298.848 212.114C306.049 207.374 311.62 200.419 315.559 191.247C319.56 182.076 321.561 170.812 321.561 157.455ZM565.472 157.455C565.472 178.075 561.564 195.617 553.746 210.082C545.991 224.547 535.404 235.596 521.985 243.229C508.628 250.8 493.609 254.585 476.928 254.585C460.124 254.585 445.044 250.769 431.687 243.136C418.33 235.504 407.773 224.455 400.018 209.99C392.262 195.525 388.384 178.013 388.384 157.455C388.384 136.834 392.262 119.292 400.018 104.827C407.773 90.3617 418.33 79.3437 431.687 71.7727C445.044 64.1401 460.124 60.3239 476.928 60.3239C493.609 60.3239 508.628 64.1401 521.985 71.7727C535.404 79.3437 545.991 90.3617 553.746 104.827C561.564 119.292 565.472 136.834 565.472 157.455ZM524.94 157.455C524.94 144.098 522.939 132.833 518.938 123.662C514.999 114.491 509.428 107.535 502.227 102.795C495.025 98.0559 486.592 95.6861 476.928 95.6861C467.264 95.6861 458.832 98.0559 451.63 102.795C444.428 107.535 438.827 114.491 434.826 123.662C430.887 132.833 428.917 144.098 428.917 157.455C428.917 170.812 430.887 182.076 434.826 191.247C438.827 200.419 444.428 207.374 451.63 212.114C458.832 216.853 467.264 219.223 476.928 219.223C486.592 219.223 495.025 216.853 502.227 212.114C509.428 207.374 514.999 200.419 518.938 191.247C522.939 182.076 524.94 170.812 524.94 157.455ZM720.471 124.031C719.178 119.538 717.362 115.568 715.023 112.121C712.684 108.612 709.822 105.658 706.436 103.257C703.113 100.795 699.296 98.9176 694.988 97.625C690.74 96.3324 686.032 95.6861 680.861 95.6861C671.197 95.6861 662.703 98.0866 655.378 102.888C648.115 107.689 642.452 114.675 638.39 123.847C634.327 132.956 632.296 144.098 632.296 157.27C632.296 170.442 634.296 181.645 638.297 190.878C642.298 200.111 647.961 207.159 655.286 212.021C662.611 216.822 671.259 219.223 681.23 219.223C690.279 219.223 698.004 217.623 704.405 214.422C710.868 211.16 715.793 206.574 719.178 200.665C722.625 194.756 724.348 187.769 724.348 179.706L732.473 180.906H683.723V150.807H762.85V174.628C762.85 191.247 759.341 205.527 752.324 217.469C745.307 229.348 735.643 238.52 723.333 244.983C711.022 251.384 696.926 254.585 681.046 254.585C663.319 254.585 647.746 250.677 634.327 242.859C620.908 234.981 610.444 223.809 602.935 209.344C595.487 194.817 591.763 177.582 591.763 157.639C591.763 142.312 593.979 128.648 598.411 116.645C602.904 104.58 609.183 94.3627 617.246 85.9915C625.31 77.6203 634.696 71.2495 645.407 66.8793C656.117 62.509 667.72 60.3239 680.215 60.3239C690.925 60.3239 700.897 61.8935 710.13 65.0327C719.363 68.1103 727.549 72.4806 734.689 78.1435C741.891 83.8063 747.769 90.5464 752.324 98.3636C756.879 106.119 759.803 114.675 761.096 124.031H720.471ZM792.88 252V62.9091H832.859V219.038H913.924V252H792.88ZM940.4 252V62.9091H1067.81V95.8707H980.378V140.928H1061.26V173.889H980.378V219.038H1068.18V252H940.4Z" fill="#5C5C5C" fill-opacity="0.31"/>
<rect width="82.0307" height="32.8337" rx="16.4168" transform="matrix(-0.509816 -0.860284 0.8609 -0.508775 313.546 181)" fill="#28CA87"/>
<rect width="82.0585" height="32.8234" rx="16.4117" transform="matrix(-0.707585 0.706628 -0.707585 -0.706628 352.193 81.1938)" fill="#1BD689"/>
<rect width="82.0307" height="32.8337" rx="16.4168" transform="matrix(0.509816 -0.860284 -0.8609 -0.508775 235.648 181)" fill="#28CA87"/>
<rect width="82.0585" height="32.8234" rx="16.4117" transform="matrix(0.707585 0.706628 0.707585 -0.706628 197 81.1938)" fill="#1BD689"/>
</svg>
