<svg width="136" height="40" viewBox="0 0 136 40" fill="none" xmlns="http://www.w3.org/2000/svg">
<path d="M55.517 29V11.5455H62.5057C63.7898 11.5455 64.8608 11.7358 65.7188 12.1165C66.5767 12.4972 67.2216 13.0256 67.6534 13.7017C68.0852 14.3722 68.3011 15.1449 68.3011 16.0199C68.3011 16.7017 68.1648 17.3011 67.892 17.8182C67.6193 18.3295 67.2443 18.75 66.767 19.0795C66.2955 19.4034 65.7557 19.6335 65.1477 19.7699V19.9403C65.8125 19.9687 66.4347 20.1562 67.0142 20.5028C67.5994 20.8494 68.0739 21.3352 68.4375 21.9602C68.8011 22.5795 68.983 23.3182 68.983 24.1761C68.983 25.1023 68.7528 25.929 68.2926 26.6562C67.8381 27.3778 67.1648 27.9489 66.2727 28.3693C65.3807 28.7898 64.2813 29 62.9744 29H55.517ZM59.2074 25.983H62.2159C63.2443 25.983 63.9943 25.7869 64.4659 25.3949C64.9375 24.9972 65.1733 24.4687 65.1733 23.8097C65.1733 23.3267 65.0568 22.9006 64.8239 22.5312C64.5909 22.1619 64.2585 21.8722 63.8267 21.6619C63.4006 21.4517 62.892 21.3466 62.3011 21.3466H59.2074V25.983ZM59.2074 18.8494H61.9432C62.4489 18.8494 62.8977 18.7614 63.2898 18.5852C63.6875 18.4034 64 18.1477 64.2273 17.8182C64.4602 17.4886 64.5767 17.0938 64.5767 16.6335C64.5767 16.0028 64.3523 15.4943 63.9034 15.108C63.4602 14.7216 62.8295 14.5284 62.0114 14.5284H59.2074V18.8494ZM77.2308 29.2557C75.907 29.2557 74.7621 28.9744 73.7962 28.4119C72.8359 27.8437 72.0945 27.054 71.5717 26.0426C71.049 25.0256 70.7876 23.8466 70.7876 22.5057C70.7876 21.1534 71.049 19.9716 71.5717 18.9602C72.0945 17.9432 72.8359 17.1534 73.7962 16.5909C74.7621 16.0227 75.907 15.7386 77.2308 15.7386C78.5547 15.7386 79.6967 16.0227 80.657 16.5909C81.6229 17.1534 82.3672 17.9432 82.8899 18.9602C83.4126 19.9716 83.674 21.1534 83.674 22.5057C83.674 23.8466 83.4126 25.0256 82.8899 26.0426C82.3672 27.054 81.6229 27.8437 80.657 28.4119C79.6967 28.9744 78.5547 29.2557 77.2308 29.2557ZM77.2479 26.4432C77.8501 26.4432 78.353 26.2727 78.7564 25.9318C79.1598 25.5852 79.4638 25.1136 79.6683 24.517C79.8786 23.9205 79.9837 23.2415 79.9837 22.4801C79.9837 21.7188 79.8786 21.0398 79.6683 20.4432C79.4638 19.8466 79.1598 19.375 78.7564 19.0284C78.353 18.6818 77.8501 18.5085 77.2479 18.5085C76.6399 18.5085 76.1286 18.6818 75.7138 19.0284C75.3047 19.375 74.995 19.8466 74.7848 20.4432C74.5803 21.0398 74.478 21.7188 74.478 22.4801C74.478 23.2415 74.5803 23.9205 74.7848 24.517C74.995 25.1136 75.3047 25.5852 75.7138 25.9318C76.1286 26.2727 76.6399 26.4432 77.2479 26.4432ZM91.9496 29.2557C90.6257 29.2557 89.4808 28.9744 88.5149 28.4119C87.5547 27.8437 86.8132 27.054 86.2905 26.0426C85.7678 25.0256 85.5064 23.8466 85.5064 22.5057C85.5064 21.1534 85.7678 19.9716 86.2905 18.9602C86.8132 17.9432 87.5547 17.1534 88.5149 16.5909C89.4808 16.0227 90.6257 15.7386 91.9496 15.7386C93.2734 15.7386 94.4155 16.0227 95.3757 16.5909C96.3416 17.1534 97.0859 17.9432 97.6087 18.9602C98.1314 19.9716 98.3928 21.1534 98.3928 22.5057C98.3928 23.8466 98.1314 25.0256 97.6087 26.0426C97.0859 27.054 96.3416 27.8437 95.3757 28.4119C94.4155 28.9744 93.2734 29.2557 91.9496 29.2557ZM91.9666 26.4432C92.5689 26.4432 93.0717 26.2727 93.4751 25.9318C93.8786 25.5852 94.1825 25.1136 94.3871 24.517C94.5973 23.9205 94.7024 23.2415 94.7024 22.4801C94.7024 21.7188 94.5973 21.0398 94.3871 20.4432C94.1825 19.8466 93.8786 19.375 93.4751 19.0284C93.0717 18.6818 92.5689 18.5085 91.9666 18.5085C91.3587 18.5085 90.8473 18.6818 90.4325 19.0284C90.0234 19.375 89.7138 19.8466 89.5036 20.4432C89.299 21.0398 89.1967 21.7188 89.1967 22.4801C89.1967 23.2415 89.299 23.9205 89.5036 24.517C89.7138 25.1136 90.0234 25.5852 90.4325 25.9318C90.8473 26.2727 91.3587 26.4432 91.9666 26.4432ZM106.651 34.1818C105.475 34.1818 104.467 34.0199 103.626 33.696C102.79 33.3778 102.126 32.9432 101.631 32.392C101.137 31.8409 100.816 31.2216 100.668 30.5341L104.026 30.0824C104.129 30.3438 104.29 30.5881 104.512 30.8153C104.734 31.0426 105.026 31.2244 105.39 31.3608C105.759 31.5028 106.208 31.5739 106.737 31.5739C107.526 31.5739 108.177 31.3807 108.688 30.9943C109.205 30.6136 109.464 29.9744 109.464 29.0767V26.6818H109.31C109.151 27.0455 108.913 27.3892 108.594 27.7131C108.276 28.0369 107.867 28.3011 107.367 28.5057C106.867 28.7102 106.271 28.8125 105.577 28.8125C104.594 28.8125 103.7 28.5852 102.893 28.1307C102.092 27.6705 101.452 26.9687 100.975 26.0256C100.504 25.0767 100.268 23.8778 100.268 22.429C100.268 20.946 100.509 19.7074 100.992 18.7131C101.475 17.7187 102.117 16.9744 102.918 16.4801C103.725 15.9858 104.609 15.7386 105.569 15.7386C106.302 15.7386 106.915 15.8636 107.41 16.1136C107.904 16.358 108.302 16.6648 108.603 17.0341C108.91 17.3977 109.146 17.7557 109.31 18.108H109.447V15.9091H113.052V29.1278C113.052 30.2415 112.779 31.1733 112.234 31.9233C111.688 32.6733 110.933 33.2358 109.967 33.6108C109.006 33.9915 107.901 34.1818 106.651 34.1818ZM106.728 26.0852C107.313 26.0852 107.808 25.9403 108.211 25.6506C108.62 25.3551 108.933 24.9347 109.148 24.3892C109.37 23.8381 109.481 23.179 109.481 22.4119C109.481 21.6449 109.373 20.9801 109.157 20.4176C108.941 19.8494 108.629 19.4091 108.219 19.0966C107.81 18.7841 107.313 18.6278 106.728 18.6278C106.131 18.6278 105.629 18.7898 105.219 19.1136C104.81 19.4318 104.501 19.875 104.29 20.4432C104.08 21.0114 103.975 21.6676 103.975 22.4119C103.975 23.1676 104.08 23.821 104.29 24.3722C104.506 24.9176 104.816 25.3409 105.219 25.642C105.629 25.9375 106.131 26.0852 106.728 26.0852ZM119.572 11.5455V29H115.941V11.5455H119.572ZM128.446 29.2557C127.099 29.2557 125.94 28.983 124.969 28.4375C124.003 27.8864 123.259 27.108 122.736 26.1023C122.213 25.0909 121.952 23.8949 121.952 22.5142C121.952 21.1676 122.213 19.9858 122.736 18.9688C123.259 17.9517 123.994 17.1591 124.943 16.5909C125.898 16.0227 127.017 15.7386 128.301 15.7386C129.165 15.7386 129.969 15.8778 130.713 16.1562C131.463 16.429 132.116 16.8409 132.673 17.392C133.236 17.9432 133.673 18.6364 133.986 19.4716C134.298 20.3011 134.455 21.2727 134.455 22.3864V23.3835H123.401V21.1335H131.037C131.037 20.6108 130.923 20.1477 130.696 19.7443C130.469 19.3409 130.153 19.0256 129.75 18.7983C129.352 18.5653 128.889 18.4489 128.361 18.4489C127.81 18.4489 127.321 18.5767 126.895 18.8324C126.474 19.0824 126.145 19.4205 125.906 19.8466C125.668 20.267 125.545 20.7358 125.54 21.2528V23.392C125.54 24.0398 125.659 24.5994 125.898 25.071C126.142 25.5426 126.486 25.9062 126.929 26.1619C127.372 26.4176 127.898 26.5455 128.506 26.5455C128.909 26.5455 129.278 26.4886 129.614 26.375C129.949 26.2614 130.236 26.0909 130.474 25.8636C130.713 25.6364 130.895 25.358 131.02 25.0284L134.378 25.25C134.207 26.0568 133.858 26.7614 133.33 27.3636C132.807 27.9602 132.131 28.4261 131.301 28.7614C130.477 29.0909 129.526 29.2557 128.446 29.2557Z" fill="black"/>
<rect width="40" height="40" rx="20" fill="#1BD689"/>
<rect x="27.027" y="31.0225" width="14.8152" height="5.92608" rx="2.96304" transform="rotate(-120.617 27.027 31.0225)" fill="white"/>
<rect x="34" y="12.9902" width="14.8152" height="5.92608" rx="2.96304" transform="rotate(135 34 12.9902)" fill="white"/>
<rect width="14.8152" height="5.92608" rx="2.96304" transform="matrix(0.509295 -0.860592 -0.860592 -0.509295 12.9727 31.0225)" fill="white"/>
<rect width="14.8152" height="5.92608" rx="2.96304" transform="matrix(0.707107 0.707107 0.707107 -0.707107 6 12.9902)" fill="white"/>
</svg>
